# xmcd
#
# Track frame offsets:
#	150
#	5255
#	25820
#	44915
#	46309
#	69287
#	70705
#	90584
#	97043
#	118303
#	137169
#
# Disc length: 2035 seconds
#
# Revision: 0
# Processed by: cddbd v1.5.1PL0 Copyright (c) Steve Scherf et al.
# Submitted via: dBpowerAMP V4.0
#
DISCID=9507f10b
DTITLE=Trillville   - The King Of Crunk and Bme Recordings Present: Welcome to Trillville
DYEAR=2004
DGENRE=rap
TTITLE0=Trillville Radio 
TTITLE1=Neva Eva 
TTITLE2=Get Some Crunk in Yo System
TTITLE3=Goodbye
TTITLE4=Weakest Link
TTITLE5=Bathroom
TTITLE6=Bitch Niggaz
TTITLE7=Dookie Love
TTITLE8=Some Cut
TTITLE9=The Hood
TTITLE10=Crank It
EXTD=
EXTT0=
EXTT1=
EXTT2=
EXTT3=
EXTT4=
EXTT5=
EXTT6=
EXTT7=
EXTT8=
EXTT9=
EXTT10=
PLAYORDER=
